<svg width="354" height="54" viewBox="0 0 354 54" fill="none" xmlns="http://www.w3.org/2000/svg">
<path d="M82.6563 42.0625V49H79.3281V33H82.5625V39.1172H82.7031C82.974 38.4089 83.4115 37.8542 84.0156 37.4531C84.6198 37.0469 85.3776 36.8438 86.2891 36.8438C87.1224 36.8438 87.849 37.026 88.4688 37.3906C89.0938 37.75 89.5781 38.2682 89.9219 38.9453C90.2708 39.6172 90.4427 40.4219 90.4375 41.3594V49H87.1094V41.9531C87.1146 41.2135 86.9271 40.638 86.5469 40.2266C86.1719 39.8151 85.6458 39.6094 84.9688 39.6094C84.5156 39.6094 84.1146 39.7057 83.7656 39.8984C83.4219 40.0911 83.151 40.3724 82.9531 40.7422C82.7604 41.1068 82.6615 41.5469 82.6563 42.0625ZM99.4395 37V39.5H92.2129V37H99.4395ZM93.8535 34.125H97.1816V45.3125C97.1816 45.6198 97.2285 45.8594 97.3223 46.0312C97.416 46.1979 97.5462 46.3151 97.7129 46.3828C97.8848 46.4505 98.0827 46.4844 98.3066 46.4844C98.4629 46.4844 98.6191 46.4714 98.7754 46.4453C98.9316 46.4141 99.0514 46.3906 99.1348 46.375L99.6582 48.8516C99.4915 48.9036 99.2572 48.9635 98.9551 49.0313C98.653 49.1042 98.2858 49.1484 97.8535 49.1641C97.0514 49.1953 96.3483 49.0885 95.7441 48.8437C95.1452 48.599 94.679 48.2187 94.3457 47.7031C94.0124 47.1875 93.8483 46.5365 93.8535 45.75V34.125ZM107.99 37V39.5H100.764V37H107.99ZM102.404 34.125H105.732V45.3125C105.732 45.6198 105.779 45.8594 105.873 46.0312C105.967 46.1979 106.097 46.3151 106.264 46.3828C106.436 46.4505 106.633 46.4844 106.857 46.4844C107.014 46.4844 107.17 46.4714 107.326 46.4453C107.482 46.4141 107.602 46.3906 107.686 46.375L108.209 48.8516C108.042 48.9036 107.808 48.9635 107.506 49.0313C107.204 49.1042 106.837 49.1484 106.404 49.1641C105.602 49.1953 104.899 49.0885 104.295 48.8437C103.696 48.599 103.23 48.2187 102.896 47.7031C102.563 47.1875 102.399 46.5365 102.404 45.75V34.125ZM110.158 53.5V37H113.439V39.0156H113.588C113.734 38.6927 113.945 38.3646 114.221 38.0312C114.502 37.6927 114.867 37.4115 115.314 37.1875C115.768 36.9583 116.33 36.8438 117.002 36.8438C117.877 36.8438 118.684 37.0729 119.424 37.5313C120.163 37.9844 120.755 38.6693 121.197 39.5859C121.64 40.4974 121.861 41.6406 121.861 43.0156C121.861 44.3542 121.645 45.4844 121.213 46.4062C120.786 47.3229 120.202 48.0182 119.463 48.4922C118.729 48.9609 117.906 49.1953 116.994 49.1953C116.348 49.1953 115.799 49.0885 115.346 48.875C114.898 48.6615 114.531 48.3932 114.244 48.0703C113.958 47.7422 113.739 47.4115 113.588 47.0781H113.486V53.5H110.158ZM113.416 43C113.416 43.7135 113.515 44.3359 113.713 44.8672C113.911 45.3984 114.197 45.8125 114.572 46.1094C114.947 46.401 115.403 46.5469 115.939 46.5469C116.481 46.5469 116.939 46.3984 117.314 46.1016C117.689 45.7995 117.973 45.3828 118.166 44.8516C118.364 44.3151 118.463 43.6979 118.463 43C118.463 42.3073 118.367 41.6979 118.174 41.1719C117.981 40.6458 117.697 40.2344 117.322 39.9375C116.947 39.6406 116.486 39.4922 115.939 39.4922C115.398 39.4922 114.939 39.6354 114.564 39.9219C114.195 40.2083 113.911 40.6146 113.713 41.1406C113.515 41.6667 113.416 42.2865 113.416 43ZM134.064 40.4219L131.018 40.6094C130.965 40.349 130.854 40.1146 130.682 39.9062C130.51 39.6927 130.283 39.5234 130.002 39.3984C129.726 39.2682 129.395 39.2031 129.01 39.2031C128.494 39.2031 128.059 39.3125 127.705 39.5312C127.351 39.7448 127.174 40.0312 127.174 40.3906C127.174 40.6771 127.288 40.9193 127.518 41.1172C127.747 41.3151 128.14 41.474 128.697 41.5937L130.869 42.0312C132.036 42.2708 132.906 42.6562 133.479 43.1875C134.051 43.7187 134.338 44.4167 134.338 45.2812C134.338 46.0677 134.106 46.7578 133.643 47.3516C133.184 47.9453 132.554 48.4089 131.752 48.7422C130.955 49.0703 130.036 49.2344 128.994 49.2344C127.406 49.2344 126.14 48.9036 125.197 48.2422C124.26 47.5755 123.71 46.6693 123.549 45.5234L126.822 45.3516C126.921 45.8359 127.161 46.2057 127.541 46.4609C127.921 46.7109 128.408 46.8359 129.002 46.8359C129.585 46.8359 130.054 46.724 130.408 46.5C130.768 46.2708 130.95 45.9766 130.955 45.6172C130.95 45.3151 130.822 45.0677 130.572 44.875C130.322 44.6771 129.937 44.526 129.416 44.4219L127.338 44.0078C126.166 43.7734 125.294 43.3672 124.721 42.7891C124.153 42.2109 123.869 41.474 123.869 40.5781C123.869 39.8073 124.077 39.1432 124.494 38.5859C124.916 38.0286 125.507 37.599 126.268 37.2969C127.033 36.9948 127.929 36.8438 128.955 36.8438C130.471 36.8438 131.663 37.1641 132.533 37.8047C133.408 38.4453 133.919 39.3177 134.064 40.4219ZM138.379 49.2031C137.863 49.2031 137.421 49.0208 137.051 48.6562C136.686 48.2865 136.504 47.8437 136.504 47.3281C136.504 46.8177 136.686 46.3802 137.051 46.0156C137.421 45.651 137.863 45.4687 138.379 45.4687C138.879 45.4687 139.316 45.651 139.691 46.0156C140.066 46.3802 140.254 46.8177 140.254 47.3281C140.254 47.6719 140.165 47.987 139.988 48.2734C139.816 48.5547 139.59 48.7812 139.309 48.9531C139.027 49.1198 138.717 49.2031 138.379 49.2031ZM138.379 40.7969C137.863 40.7969 137.421 40.6146 137.051 40.25C136.686 39.8854 136.504 39.4427 136.504 38.9219C136.504 38.4115 136.686 37.9766 137.051 37.6172C137.421 37.2526 137.863 37.0703 138.379 37.0703C138.879 37.0703 139.316 37.2526 139.691 37.6172C140.066 37.9766 140.254 38.4115 140.254 38.9219C140.254 39.2708 140.165 39.5885 139.988 39.875C139.816 40.1562 139.59 40.3802 139.309 40.5469C139.027 40.7135 138.717 40.7969 138.379 40.7969ZM149.955 32.25L144.799 51.4062H141.932L147.088 32.25H149.955ZM158.527 32.25L153.371 51.4062H150.504L155.66 32.25H158.527ZM163.459 42.0625V49H160.131V33H163.365V39.1172H163.506C163.777 38.4089 164.214 37.8542 164.818 37.4531C165.423 37.0469 166.18 36.8438 167.092 36.8438C167.925 36.8438 168.652 37.026 169.271 37.3906C169.896 37.75 170.381 38.2682 170.725 38.9453C171.074 39.6172 171.245 40.4219 171.24 41.3594V49H167.912V41.9531C167.917 41.2135 167.73 40.638 167.35 40.2266C166.975 39.8151 166.449 39.6094 165.771 39.6094C165.318 39.6094 164.917 39.7057 164.568 39.8984C164.225 40.0911 163.954 40.3724 163.756 40.7422C163.563 41.1068 163.464 41.5469 163.459 42.0625ZM173.859 49V37H177.188V49H173.859ZM175.531 35.4531C175.036 35.4531 174.612 35.2891 174.258 34.9609C173.909 34.6276 173.734 34.2292 173.734 33.7656C173.734 33.3073 173.909 32.9141 174.258 32.5859C174.612 32.2526 175.036 32.0859 175.531 32.0859C176.026 32.0859 176.448 32.2526 176.797 32.5859C177.151 32.9141 177.328 33.3073 177.328 33.7656C177.328 34.2292 177.151 34.6276 176.797 34.9609C176.448 35.2891 176.026 35.4531 175.531 35.4531ZM179.854 49V37H183.08V39.0937H183.205C183.424 38.349 183.791 37.7865 184.307 37.4063C184.822 37.0208 185.416 36.8281 186.088 36.8281C186.255 36.8281 186.434 36.8385 186.627 36.8594C186.82 36.8802 186.989 36.9089 187.135 36.9453V39.8984C186.979 39.8516 186.762 39.8099 186.486 39.7734C186.21 39.737 185.958 39.7188 185.729 39.7188C185.239 39.7188 184.801 39.8255 184.416 40.0391C184.036 40.2474 183.734 40.5391 183.51 40.9141C183.291 41.2891 183.182 41.7214 183.182 42.2109V49H179.854ZM193.766 49.2344C192.531 49.2344 191.469 48.9844 190.578 48.4844C189.693 47.9792 189.01 47.2656 188.531 46.3437C188.052 45.4167 187.813 44.3203 187.813 43.0547C187.813 41.8203 188.052 40.737 188.531 39.8047C189.01 38.8724 189.685 38.1458 190.555 37.625C191.43 37.1042 192.456 36.8438 193.633 36.8438C194.424 36.8438 195.161 36.9714 195.844 37.2266C196.531 37.4766 197.13 37.8542 197.641 38.3594C198.156 38.8646 198.557 39.5 198.844 40.2656C199.13 41.026 199.273 41.9167 199.273 42.9375V43.8516H189.141V41.7891H196.141C196.141 41.3099 196.036 40.8854 195.828 40.5156C195.62 40.1458 195.331 39.8568 194.961 39.6484C194.596 39.4349 194.172 39.3281 193.688 39.3281C193.182 39.3281 192.734 39.4453 192.344 39.6797C191.958 39.9089 191.656 40.2187 191.438 40.6094C191.219 40.9948 191.107 41.4245 191.102 41.8984V43.8594C191.102 44.4531 191.211 44.9661 191.43 45.3984C191.654 45.8307 191.969 46.1641 192.375 46.3984C192.781 46.6328 193.263 46.75 193.82 46.75C194.19 46.75 194.529 46.6979 194.836 46.5938C195.143 46.4896 195.406 46.3333 195.625 46.125C195.844 45.9167 196.01 45.6615 196.125 45.3594L199.203 45.5625C199.047 46.3021 198.727 46.9479 198.242 47.5C197.763 48.0469 197.143 48.474 196.383 48.7813C195.628 49.0833 194.755 49.2344 193.766 49.2344ZM204.867 49.2266C204.102 49.2266 203.419 49.0938 202.82 48.8281C202.221 48.5573 201.747 48.1589 201.398 47.6328C201.055 47.1016 200.883 46.4401 200.883 45.6484C200.883 44.9818 201.005 44.4219 201.25 43.9687C201.495 43.5156 201.828 43.151 202.25 42.875C202.672 42.599 203.151 42.3906 203.688 42.25C204.229 42.1094 204.797 42.0104 205.391 41.9531C206.089 41.8802 206.651 41.8125 207.078 41.75C207.505 41.6823 207.815 41.5833 208.008 41.4531C208.201 41.3229 208.297 41.1302 208.297 40.875V40.8281C208.297 40.3333 208.141 39.9505 207.828 39.6797C207.521 39.4089 207.083 39.2734 206.516 39.2734C205.917 39.2734 205.44 39.4062 205.086 39.6719C204.732 39.9323 204.497 40.2604 204.383 40.6562L201.305 40.4062C201.461 39.6771 201.768 39.0469 202.227 38.5156C202.685 37.9792 203.276 37.5677 204 37.2812C204.729 36.9896 205.573 36.8438 206.531 36.8438C207.198 36.8438 207.836 36.9219 208.445 37.0781C209.06 37.2344 209.604 37.4766 210.078 37.8047C210.557 38.1328 210.935 38.5547 211.211 39.0703C211.487 39.5807 211.625 40.1927 211.625 40.9062V49H208.469V47.3359H208.375C208.182 47.7109 207.924 48.0417 207.602 48.3281C207.279 48.6094 206.891 48.8307 206.438 48.9922C205.984 49.1484 205.461 49.2266 204.867 49.2266ZM205.82 46.9297C206.31 46.9297 206.742 46.8333 207.117 46.6406C207.492 46.4427 207.786 46.1771 208 45.8438C208.214 45.5104 208.32 45.1328 208.32 44.7109V43.4375C208.216 43.5052 208.073 43.5677 207.891 43.625C207.714 43.6771 207.513 43.7266 207.289 43.7734C207.065 43.8151 206.841 43.8542 206.617 43.8906C206.393 43.9219 206.19 43.9505 206.008 43.9766C205.617 44.0339 205.276 44.125 204.984 44.25C204.693 44.375 204.466 44.5443 204.305 44.7578C204.143 44.9661 204.063 45.2266 204.063 45.5391C204.063 45.9922 204.227 46.3385 204.555 46.5781C204.888 46.8125 205.31 46.9297 205.82 46.9297ZM214.207 49V37H217.535V49H214.207ZM215.879 35.4531C215.384 35.4531 214.96 35.2891 214.605 34.9609C214.257 34.6276 214.082 34.2292 214.082 33.7656C214.082 33.3073 214.257 32.9141 214.605 32.5859C214.96 32.2526 215.384 32.0859 215.879 32.0859C216.374 32.0859 216.796 32.2526 217.145 32.5859C217.499 32.9141 217.676 33.3073 217.676 33.7656C217.676 34.2292 217.499 34.6276 217.145 34.9609C216.796 35.2891 216.374 35.4531 215.879 35.4531ZM222.146 49.2031C221.631 49.2031 221.188 49.0208 220.818 48.6562C220.454 48.2865 220.271 47.8437 220.271 47.3281C220.271 46.8177 220.454 46.3802 220.818 46.0156C221.188 45.651 221.631 45.4687 222.146 45.4687C222.646 45.4687 223.084 45.651 223.459 46.0156C223.834 46.3802 224.021 46.8177 224.021 47.3281C224.021 47.6719 223.933 47.987 223.756 48.2734C223.584 48.5547 223.357 48.7812 223.076 48.9531C222.795 49.1198 222.485 49.2031 222.146 49.2031ZM226.816 49V33H230.145V39.0156H230.246C230.392 38.6927 230.603 38.3646 230.879 38.0312C231.16 37.6927 231.525 37.4115 231.973 37.1875C232.426 36.9583 232.988 36.8438 233.66 36.8438C234.535 36.8438 235.342 37.0729 236.082 37.5313C236.822 37.9844 237.413 38.6693 237.855 39.5859C238.298 40.4974 238.52 41.6406 238.52 43.0156C238.52 44.3542 238.303 45.4844 237.871 46.4062C237.444 47.3229 236.861 48.0182 236.121 48.4922C235.387 48.9609 234.564 49.1953 233.652 49.1953C233.007 49.1953 232.457 49.0885 232.004 48.875C231.556 48.6615 231.189 48.3932 230.902 48.0703C230.616 47.7422 230.397 47.4115 230.246 47.0781H230.098V49H226.816ZM230.074 43C230.074 43.7135 230.173 44.3359 230.371 44.8672C230.569 45.3984 230.855 45.8125 231.23 46.1094C231.605 46.401 232.061 46.5469 232.598 46.5469C233.139 46.5469 233.598 46.3984 233.973 46.1016C234.348 45.7995 234.632 45.3828 234.824 44.8516C235.022 44.3151 235.121 43.6979 235.121 43C235.121 42.3073 235.025 41.6979 234.832 41.1719C234.639 40.6458 234.355 40.2344 233.98 39.9375C233.605 39.6406 233.145 39.4922 232.598 39.4922C232.056 39.4922 231.598 39.6354 231.223 39.9219C230.853 40.2083 230.569 40.6146 230.371 41.1406C230.173 41.6667 230.074 42.2865 230.074 43ZM246.162 49.2344C244.949 49.2344 243.899 48.9766 243.014 48.4609C242.133 47.9401 241.454 47.2161 240.975 46.2891C240.495 45.3568 240.256 44.276 240.256 43.0469C240.256 41.8073 240.495 40.724 240.975 39.7969C241.454 38.8646 242.133 38.1406 243.014 37.625C243.899 37.1042 244.949 36.8438 246.162 36.8438C247.376 36.8438 248.423 37.1042 249.303 37.625C250.188 38.1406 250.87 38.8646 251.35 39.7969C251.829 40.724 252.068 41.8073 252.068 43.0469C252.068 44.276 251.829 45.3568 251.35 46.2891C250.87 47.2161 250.188 47.9401 249.303 48.4609C248.423 48.9766 247.376 49.2344 246.162 49.2344ZM246.178 46.6562C246.73 46.6562 247.191 46.5 247.561 46.1875C247.93 45.8698 248.209 45.4375 248.396 44.8906C248.589 44.3437 248.686 43.7214 248.686 43.0234C248.686 42.3255 248.589 41.7031 248.396 41.1562C248.209 40.6094 247.93 40.1771 247.561 39.8594C247.191 39.5417 246.73 39.3828 246.178 39.3828C245.62 39.3828 245.152 39.5417 244.771 39.8594C244.396 40.1771 244.113 40.6094 243.92 41.1562C243.732 41.7031 243.639 42.3255 243.639 43.0234C243.639 43.7214 243.732 44.3437 243.92 44.8906C244.113 45.4375 244.396 45.8698 244.771 46.1875C245.152 46.5 245.62 46.6562 246.178 46.6562ZM260.615 37V39.5H253.389V37H260.615ZM255.029 34.125H258.357V45.3125C258.357 45.6198 258.404 45.8594 258.498 46.0312C258.592 46.1979 258.722 46.3151 258.889 46.3828C259.061 46.4505 259.258 46.4844 259.482 46.4844C259.639 46.4844 259.795 46.4714 259.951 46.4453C260.107 46.4141 260.227 46.3906 260.311 46.375L260.834 48.8516C260.667 48.9036 260.433 48.9635 260.131 49.0313C259.829 49.1042 259.462 49.1484 259.029 49.1641C258.227 49.1953 257.524 49.0885 256.92 48.8437C256.321 48.599 255.855 48.2187 255.521 47.7031C255.188 47.1875 255.024 46.5365 255.029 45.75V34.125Z" fill="#E85328"/>
<a href="https://hireai.bot/">
<rect fill="black" fill-opacity="0" y="0.1875" width="183.451" height="26.625"/>
</a>
<path d="M1.86908 23V5.54545H5.55942V19.9574H13.0424V23H1.86908ZM21.864 23.2557C20.5174 23.2557 19.3583 22.983 18.3867 22.4375C17.4208 21.8864 16.6765 21.108 16.1538 20.1023C15.631 19.0909 15.3697 17.8949 15.3697 16.5142C15.3697 15.1676 15.631 13.9858 16.1538 12.9688C16.6765 11.9517 17.4123 11.1591 18.3612 10.5909C19.3157 10.0227 20.435 9.73864 21.7191 9.73864C22.5827 9.73864 23.3867 9.87784 24.131 10.1562C24.881 10.429 25.5345 10.8409 26.0913 11.392C26.6538 11.9432 27.0913 12.6364 27.4038 13.4716C27.7163 14.3011 27.8725 15.2727 27.8725 16.3864V17.3835H16.8185V15.1335H24.4549C24.4549 14.6108 24.3413 14.1477 24.114 13.7443C23.8867 13.3409 23.5714 13.0256 23.168 12.7983C22.7702 12.5653 22.3072 12.4489 21.7788 12.4489C21.2276 12.4489 20.739 12.5767 20.3129 12.8324C19.8924 13.0824 19.5629 13.4205 19.3242 13.8466C19.0856 14.267 18.9634 14.7358 18.9577 15.2528V17.392C18.9577 18.0398 19.0771 18.5994 19.3157 19.071C19.56 19.5426 19.9038 19.9062 20.3469 20.1619C20.7901 20.4176 21.3157 20.5455 21.9237 20.5455C22.3271 20.5455 22.6964 20.4886 23.0316 20.375C23.3668 20.2614 23.6538 20.0909 23.8924 19.8636C24.131 19.6364 24.3129 19.358 24.4379 19.0284L27.7958 19.25C27.6254 20.0568 27.2759 20.7614 26.7475 21.3636C26.2248 21.9602 25.5487 22.4261 24.7191 22.7614C23.8952 23.0909 22.9435 23.2557 21.864 23.2557ZM37.6849 9.90909V12.6364H29.8014V9.90909H37.6849ZM31.5912 6.77273H35.2218V18.9773C35.2218 19.3125 35.273 19.5739 35.3752 19.7614C35.4775 19.9432 35.6196 20.071 35.8014 20.1449C35.9889 20.2187 36.2048 20.2557 36.4491 20.2557C36.6196 20.2557 36.79 20.2415 36.9605 20.2131C37.1309 20.179 37.2616 20.1534 37.3525 20.1364L37.9235 22.8381C37.7417 22.8949 37.486 22.9602 37.1565 23.0341C36.8269 23.1136 36.4264 23.1619 35.9548 23.179C35.0798 23.2131 34.3127 23.0966 33.6537 22.8295C33.0002 22.5625 32.4917 22.1477 32.1281 21.5852C31.7644 21.0227 31.5855 20.3125 31.5912 19.4545V6.77273ZM57.4567 13.642L54.1328 13.8466C54.076 13.5625 53.9539 13.3068 53.7664 13.0795C53.5789 12.8466 53.3317 12.6619 53.0249 12.5256C52.7237 12.3835 52.3629 12.3125 51.9425 12.3125C51.38 12.3125 50.9056 12.4318 50.5192 12.6705C50.1328 12.9034 49.9396 13.2159 49.9396 13.608C49.9396 13.9205 50.0646 14.1847 50.3146 14.4006C50.5646 14.6165 50.9936 14.7898 51.6016 14.9205L53.9709 15.3977C55.2436 15.6591 56.1925 16.0795 56.8175 16.6591C57.4425 17.2386 57.755 18 57.755 18.9432C57.755 19.8011 57.5021 20.554 56.9965 21.2017C56.4965 21.8494 55.809 22.3551 54.934 22.7188C54.0646 23.0767 53.0618 23.2557 51.9254 23.2557C50.1925 23.2557 48.8118 22.8949 47.7834 22.1733C46.7607 21.446 46.1612 20.4574 45.9851 19.2074L49.5561 19.0199C49.6641 19.5483 49.9254 19.9517 50.3402 20.2301C50.755 20.5028 51.2862 20.6392 51.934 20.6392C52.5703 20.6392 53.0817 20.517 53.4681 20.2727C53.8601 20.0227 54.059 19.7017 54.0646 19.3097C54.059 18.9801 53.9198 18.7102 53.647 18.5C53.3743 18.2841 52.9539 18.1193 52.3857 18.0057L50.1186 17.554C48.8402 17.2983 47.8885 16.8551 47.2635 16.2244C46.6442 15.5937 46.3345 14.7898 46.3345 13.8125C46.3345 12.9716 46.5618 12.2472 47.0164 11.6392C47.4766 11.0312 48.1215 10.5625 48.951 10.233C49.7862 9.90341 50.7635 9.73864 51.8828 9.73864C53.5362 9.73864 54.8374 10.0881 55.7862 10.7869C56.7408 11.4858 57.2976 12.4375 57.4567 13.642ZM66.436 23.2557C65.1121 23.2557 63.9672 22.9744 63.0013 22.4119C62.0411 21.8437 61.2996 21.054 60.7769 20.0426C60.2542 19.0256 59.9928 17.8466 59.9928 16.5057C59.9928 15.1534 60.2542 13.9716 60.7769 12.9602C61.2996 11.9432 62.0411 11.1534 63.0013 10.5909C63.9672 10.0227 65.1121 9.73864 66.436 9.73864C67.7598 9.73864 68.9019 10.0227 69.8621 10.5909C70.828 11.1534 71.5723 11.9432 72.0951 12.9602C72.6178 13.9716 72.8792 15.1534 72.8792 16.5057C72.8792 17.8466 72.6178 19.0256 72.0951 20.0426C71.5723 21.054 70.828 21.8437 69.8621 22.4119C68.9019 22.9744 67.7598 23.2557 66.436 23.2557ZM66.453 20.4432C67.0553 20.4432 67.5581 20.2727 67.9616 19.9318C68.365 19.5852 68.6689 19.1136 68.8735 18.517C69.0837 17.9205 69.1888 17.2415 69.1888 16.4801C69.1888 15.7188 69.0837 15.0398 68.8735 14.4432C68.6689 13.8466 68.365 13.375 67.9616 13.0284C67.5581 12.6818 67.0553 12.5085 66.453 12.5085C65.8451 12.5085 65.3337 12.6818 64.9189 13.0284C64.5098 13.375 64.2002 13.8466 63.99 14.4432C63.7854 15.0398 63.6831 15.7188 63.6831 16.4801C63.6831 17.2415 63.7854 17.9205 63.99 18.517C64.2002 19.1136 64.5098 19.5852 64.9189 19.9318C65.3337 20.2727 65.8451 20.4432 66.453 20.4432ZM75.72 23V9.90909H79.1802V12.2188H79.3336C79.6063 11.4517 80.0609 10.8466 80.6972 10.4034C81.3336 9.96023 82.095 9.73864 82.9813 9.73864C83.8791 9.73864 84.6433 9.96307 85.2739 10.4119C85.9046 10.8551 86.3251 11.4574 86.5353 12.2188H86.6717C86.9387 11.4688 87.4217 10.8693 88.1205 10.4205C88.8251 9.96591 89.6575 9.73864 90.6177 9.73864C91.8393 9.73864 92.8308 10.1278 93.5921 10.9062C94.3592 11.679 94.7427 12.7756 94.7427 14.196V23H91.1205V14.9119C91.1205 14.1847 90.9273 13.6392 90.541 13.2756C90.1546 12.9119 89.6717 12.7301 89.0921 12.7301C88.433 12.7301 87.9188 12.9403 87.5495 13.3608C87.1802 13.7756 86.9955 14.3239 86.9955 15.0057V23H83.4756V14.8352C83.4756 14.1932 83.291 13.6818 82.9217 13.3011C82.558 12.9205 82.0779 12.7301 81.4813 12.7301C81.0779 12.7301 80.7143 12.8324 80.3904 13.0369C80.0722 13.2358 79.8194 13.517 79.6319 13.8807C79.4444 14.2386 79.3506 14.6591 79.3506 15.142V23H75.72ZM104.056 23.2557C102.71 23.2557 101.551 22.983 100.579 22.4375C99.6133 21.8864 98.869 21.108 98.3463 20.1023C97.8235 19.0909 97.5622 17.8949 97.5622 16.5142C97.5622 15.1676 97.8235 13.9858 98.3463 12.9688C98.869 11.9517 99.6048 11.1591 100.554 10.5909C101.508 10.0227 102.628 9.73864 103.912 9.73864C104.775 9.73864 105.579 9.87784 106.324 10.1562C107.074 10.429 107.727 10.8409 108.284 11.392C108.846 11.9432 109.284 12.6364 109.596 13.4716C109.909 14.3011 110.065 15.2727 110.065 16.3864V17.3835H99.011V15.1335H106.647C106.647 14.6108 106.534 14.1477 106.306 13.7443C106.079 13.3409 105.764 13.0256 105.36 12.7983C104.963 12.5653 104.5 12.4489 103.971 12.4489C103.42 12.4489 102.931 12.5767 102.505 12.8324C102.085 13.0824 101.755 13.4205 101.517 13.8466C101.278 14.267 101.156 14.7358 101.15 15.2528V17.392C101.15 18.0398 101.27 18.5994 101.508 19.071C101.753 19.5426 102.096 19.9062 102.539 20.1619C102.983 20.4176 103.508 20.5455 104.116 20.5455C104.52 20.5455 104.889 20.4886 105.224 20.375C105.559 20.2614 105.846 20.0909 106.085 19.8636C106.324 19.6364 106.505 19.358 106.63 19.0284L109.988 19.25C109.818 20.0568 109.468 20.7614 108.94 21.3636C108.417 21.9602 107.741 22.4261 106.912 22.7614C106.088 23.0909 105.136 23.2557 104.056 23.2557ZM118.829 23.2557C117.505 23.2557 116.36 22.9744 115.394 22.4119C114.434 21.8437 113.693 21.054 113.17 20.0426C112.647 19.0256 112.386 17.8466 112.386 16.5057C112.386 15.1534 112.647 13.9716 113.17 12.9602C113.693 11.9432 114.434 11.1534 115.394 10.5909C116.36 10.0227 117.505 9.73864 118.829 9.73864C120.153 9.73864 121.295 10.0227 122.255 10.5909C123.221 11.1534 123.965 11.9432 124.488 12.9602C125.011 13.9716 125.272 15.1534 125.272 16.5057C125.272 17.8466 125.011 19.0256 124.488 20.0426C123.965 21.054 123.221 21.8437 122.255 22.4119C121.295 22.9744 120.153 23.2557 118.829 23.2557ZM118.846 20.4432C119.448 20.4432 119.951 20.2727 120.355 19.9318C120.758 19.5852 121.062 19.1136 121.267 18.517C121.477 17.9205 121.582 17.2415 121.582 16.4801C121.582 15.7188 121.477 15.0398 121.267 14.4432C121.062 13.8466 120.758 13.375 120.355 13.0284C119.951 12.6818 119.448 12.5085 118.846 12.5085C118.238 12.5085 117.727 12.6818 117.312 13.0284C116.903 13.375 116.593 13.8466 116.383 14.4432C116.179 15.0398 116.076 15.7188 116.076 16.4801C116.076 17.2415 116.179 17.9205 116.383 18.517C116.593 19.1136 116.903 19.5852 117.312 19.9318C117.727 20.2727 118.238 20.4432 118.846 20.4432ZM131.744 15.4318V23H128.113V9.90909H131.573V12.2188H131.727C132.016 11.4574 132.502 10.8551 133.184 10.4119C133.866 9.96307 134.693 9.73864 135.664 9.73864C136.573 9.73864 137.366 9.9375 138.042 10.3352C138.718 10.733 139.244 11.3011 139.619 12.0398C139.994 12.7727 140.181 13.6477 140.181 14.6648V23H136.551V15.3125C136.556 14.5114 136.352 13.8864 135.937 13.4375C135.522 12.983 134.951 12.7557 134.224 12.7557C133.735 12.7557 133.303 12.8608 132.928 13.071C132.559 13.2812 132.269 13.5881 132.059 13.9915C131.855 14.3892 131.749 14.8693 131.744 15.4318ZM149.489 23.2557C148.142 23.2557 146.983 22.983 146.011 22.4375C145.046 21.8864 144.301 21.108 143.778 20.1023C143.256 19.0909 142.994 17.8949 142.994 16.5142C142.994 15.1676 143.256 13.9858 143.778 12.9688C144.301 11.9517 145.037 11.1591 145.986 10.5909C146.94 10.0227 148.06 9.73864 149.344 9.73864C150.207 9.73864 151.011 9.87784 151.756 10.1562C152.506 10.429 153.159 10.8409 153.716 11.392C154.278 11.9432 154.716 12.6364 155.028 13.4716C155.341 14.3011 155.497 15.2727 155.497 16.3864V17.3835H144.443V15.1335H152.08C152.08 14.6108 151.966 14.1477 151.739 13.7443C151.511 13.3409 151.196 13.0256 150.793 12.7983C150.395 12.5653 149.932 12.4489 149.403 12.4489C148.852 12.4489 148.364 12.5767 147.938 12.8324C147.517 13.0824 147.188 13.4205 146.949 13.8466C146.71 14.267 146.588 14.7358 146.582 15.2528V17.392C146.582 18.0398 146.702 18.5994 146.94 19.071C147.185 19.5426 147.528 19.9062 147.972 20.1619C148.415 20.4176 148.94 20.5455 149.548 20.5455C149.952 20.5455 150.321 20.4886 150.656 20.375C150.992 20.2614 151.278 20.0909 151.517 19.8636C151.756 19.6364 151.938 19.358 152.063 19.0284L155.421 19.25C155.25 20.0568 154.901 20.7614 154.372 21.3636C153.849 21.9602 153.173 22.4261 152.344 22.7614C151.52 23.0909 150.568 23.2557 149.489 23.2557ZM168.012 15.4318V23H164.381V5.54545H167.91V12.2188H168.063C168.358 11.446 168.836 10.8409 169.495 10.4034C170.154 9.96023 170.981 9.73864 171.975 9.73864C172.884 9.73864 173.677 9.9375 174.353 10.3352C175.035 10.7273 175.563 11.2926 175.938 12.0312C176.319 12.7642 176.506 13.642 176.501 14.6648V23H172.87V15.3125C172.876 14.5057 172.671 13.8778 172.256 13.429C171.847 12.9801 171.273 12.7557 170.535 12.7557C170.04 12.7557 169.603 12.8608 169.222 13.071C168.847 13.2812 168.552 13.5881 168.336 13.9915C168.126 14.3892 168.018 14.8693 168.012 15.4318ZM183.571 23.2472C182.736 23.2472 181.991 23.1023 181.338 22.8125C180.684 22.517 180.167 22.0824 179.787 21.5085C179.412 20.929 179.224 20.2074 179.224 19.3438C179.224 18.6165 179.358 18.0057 179.625 17.5114C179.892 17.017 180.255 16.6193 180.716 16.3182C181.176 16.017 181.699 15.7898 182.284 15.6364C182.875 15.483 183.494 15.375 184.142 15.3125C184.903 15.233 185.517 15.1591 185.983 15.0909C186.449 15.017 186.787 14.9091 186.997 14.767C187.207 14.625 187.312 14.4148 187.312 14.1364V14.0852C187.312 13.5455 187.142 13.1278 186.801 12.8324C186.466 12.5369 185.988 12.3892 185.369 12.3892C184.716 12.3892 184.196 12.5341 183.809 12.8239C183.423 13.108 183.167 13.4659 183.042 13.8977L179.684 13.625C179.855 12.8295 180.19 12.142 180.69 11.5625C181.19 10.9773 181.835 10.5284 182.625 10.2159C183.42 9.89773 184.341 9.73864 185.386 9.73864C186.113 9.73864 186.809 9.82386 187.474 9.99432C188.145 10.1648 188.738 10.429 189.255 10.7869C189.778 11.1449 190.19 11.6051 190.491 12.1676C190.792 12.7244 190.943 13.392 190.943 14.1705V23H187.5V21.1847H187.397C187.187 21.5938 186.906 21.9545 186.554 22.267C186.201 22.5739 185.778 22.8153 185.284 22.9915C184.789 23.1619 184.218 23.2472 183.571 23.2472ZM184.611 20.7415C185.145 20.7415 185.616 20.6364 186.025 20.4261C186.434 20.2102 186.755 19.9205 186.988 19.5568C187.221 19.1932 187.338 18.7812 187.338 18.321V16.9318C187.224 17.0057 187.068 17.0739 186.869 17.1364C186.676 17.1932 186.457 17.2472 186.213 17.2983C185.968 17.3437 185.724 17.3864 185.48 17.4261C185.236 17.4602 185.014 17.4915 184.815 17.5199C184.389 17.5824 184.017 17.6818 183.699 17.8182C183.38 17.9545 183.133 18.1392 182.957 18.3722C182.781 18.5994 182.693 18.8835 182.693 19.2244C182.693 19.7188 182.872 20.0966 183.23 20.358C183.593 20.6136 184.054 20.7415 184.611 20.7415ZM197.87 15.4318V23H194.24V9.90909H197.7V12.2188H197.853C198.143 11.4574 198.629 10.8551 199.311 10.4119C199.992 9.96307 200.819 9.73864 201.791 9.73864C202.7 9.73864 203.492 9.9375 204.169 10.3352C204.845 10.733 205.37 11.3011 205.745 12.0398C206.12 12.7727 206.308 13.6477 206.308 14.6648V23H202.677V15.3125C202.683 14.5114 202.478 13.8864 202.064 13.4375C201.649 12.983 201.078 12.7557 200.35 12.7557C199.862 12.7557 199.43 12.8608 199.055 13.071C198.686 13.2812 198.396 13.5881 198.186 13.9915C197.981 14.3892 197.876 14.8693 197.87 15.4318ZM214.473 23.2131C213.479 23.2131 212.578 22.9574 211.771 22.446C210.97 21.929 210.334 21.1705 209.862 20.1705C209.396 19.1648 209.164 17.9318 209.164 16.4716C209.164 14.9716 209.405 13.7244 209.888 12.7301C210.371 11.7301 211.013 10.983 211.814 10.4886C212.621 9.98864 213.504 9.73864 214.465 9.73864C215.198 9.73864 215.808 9.86364 216.297 10.1136C216.791 10.358 217.189 10.6648 217.49 11.0341C217.797 11.3977 218.03 11.7557 218.189 12.108H218.3V5.54545H221.922V23H218.343V20.9034H218.189C218.019 21.267 217.777 21.6278 217.465 21.9858C217.158 22.3381 216.757 22.6307 216.263 22.8636C215.774 23.0966 215.178 23.2131 214.473 23.2131ZM215.624 20.3239C216.209 20.3239 216.703 20.1648 217.107 19.8466C217.516 19.5227 217.828 19.071 218.044 18.4915C218.266 17.9119 218.377 17.233 218.377 16.4545C218.377 15.6761 218.269 15 218.053 14.4261C217.837 13.8523 217.524 13.4091 217.115 13.0966C216.706 12.7841 216.209 12.6278 215.624 12.6278C215.027 12.6278 214.524 12.7898 214.115 13.1136C213.706 13.4375 213.396 13.8864 213.186 14.4602C212.976 15.0341 212.871 15.6989 212.871 16.4545C212.871 17.2159 212.976 17.8892 213.186 18.4744C213.402 19.054 213.712 19.5085 214.115 19.8381C214.524 20.1619 215.027 20.3239 215.624 20.3239ZM229.018 5.54545V23H225.387V5.54545H229.018ZM238.372 23.2557C237.026 23.2557 235.866 22.983 234.895 22.4375C233.929 21.8864 233.185 21.108 232.662 20.1023C232.139 19.0909 231.878 17.8949 231.878 16.5142C231.878 15.1676 232.139 13.9858 232.662 12.9688C233.185 11.9517 233.92 11.1591 234.869 10.5909C235.824 10.0227 236.943 9.73864 238.227 9.73864C239.091 9.73864 239.895 9.87784 240.639 10.1562C241.389 10.429 242.043 10.8409 242.599 11.392C243.162 11.9432 243.599 12.6364 243.912 13.4716C244.224 14.3011 244.381 15.2727 244.381 16.3864V17.3835H233.327V15.1335H240.963C240.963 14.6108 240.849 14.1477 240.622 13.7443C240.395 13.3409 240.08 13.0256 239.676 12.7983C239.278 12.5653 238.815 12.4489 238.287 12.4489C237.736 12.4489 237.247 12.5767 236.821 12.8324C236.401 13.0824 236.071 13.4205 235.832 13.8466C235.594 14.267 235.472 14.7358 235.466 15.2528V17.392C235.466 18.0398 235.585 18.5994 235.824 19.071C236.068 19.5426 236.412 19.9062 236.855 20.1619C237.298 20.4176 237.824 20.5455 238.432 20.5455C238.835 20.5455 239.205 20.4886 239.54 20.375C239.875 20.2614 240.162 20.0909 240.401 19.8636C240.639 19.6364 240.821 19.358 240.946 19.0284L244.304 19.25C244.133 20.0568 243.784 20.7614 243.256 21.3636C242.733 21.9602 242.057 22.4261 241.227 22.7614C240.403 23.0909 239.452 23.2557 238.372 23.2557ZM260.228 9.90909V12.6364H252.344V9.90909H260.228ZM254.134 6.77273H257.765V18.9773C257.765 19.3125 257.816 19.5739 257.918 19.7614C258.02 19.9432 258.162 20.071 258.344 20.1449C258.532 20.2187 258.748 20.2557 258.992 20.2557C259.162 20.2557 259.333 20.2415 259.503 20.2131C259.674 20.179 259.804 20.1534 259.895 20.1364L260.466 22.8381C260.285 22.8949 260.029 22.9602 259.699 23.0341C259.37 23.1136 258.969 23.1619 258.498 23.179C257.623 23.2131 256.856 23.0966 256.196 22.8295C255.543 22.5625 255.035 22.1477 254.671 21.5852C254.307 21.0227 254.128 20.3125 254.134 19.4545V6.77273ZM266.985 15.4318V23H263.354V5.54545H266.882V12.2188H267.036C267.331 11.446 267.809 10.8409 268.468 10.4034C269.127 9.96023 269.953 9.73864 270.948 9.73864C271.857 9.73864 272.649 9.9375 273.326 10.3352C274.007 10.7273 274.536 11.2926 274.911 12.0312C275.292 12.7642 275.479 13.642 275.473 14.6648V23H271.843V15.3125C271.848 14.5057 271.644 13.8778 271.229 13.429C270.82 12.9801 270.246 12.7557 269.507 12.7557C269.013 12.7557 268.576 12.8608 268.195 13.071C267.82 13.2812 267.524 13.5881 267.309 13.9915C267.098 14.3892 266.99 14.8693 266.985 15.4318ZM284.776 23.2557C283.43 23.2557 282.271 22.983 281.299 22.4375C280.333 21.8864 279.589 21.108 279.066 20.1023C278.544 19.0909 278.282 17.8949 278.282 16.5142C278.282 15.1676 278.544 13.9858 279.066 12.9688C279.589 11.9517 280.325 11.1591 281.274 10.5909C282.228 10.0227 283.347 9.73864 284.632 9.73864C285.495 9.73864 286.299 9.87784 287.044 10.1562C287.794 10.429 288.447 10.8409 289.004 11.392C289.566 11.9432 290.004 12.6364 290.316 13.4716C290.629 14.3011 290.785 15.2727 290.785 16.3864V17.3835H279.731V15.1335H287.367C287.367 14.6108 287.254 14.1477 287.026 13.7443C286.799 13.3409 286.484 13.0256 286.08 12.7983C285.683 12.5653 285.22 12.4489 284.691 12.4489C284.14 12.4489 283.651 12.5767 283.225 12.8324C282.805 13.0824 282.475 13.4205 282.237 13.8466C281.998 14.267 281.876 14.7358 281.87 15.2528V17.392C281.87 18.0398 281.99 18.5994 282.228 19.071C282.472 19.5426 282.816 19.9062 283.259 20.1619C283.703 20.4176 284.228 20.5455 284.836 20.5455C285.24 20.5455 285.609 20.4886 285.944 20.375C286.279 20.2614 286.566 20.0909 286.805 19.8636C287.044 19.6364 287.225 19.358 287.35 19.0284L290.708 19.25C290.538 20.0568 290.188 20.7614 289.66 21.3636C289.137 21.9602 288.461 22.4261 287.632 22.7614C286.808 23.0909 285.856 23.2557 284.776 23.2557ZM299.669 23V9.90909H303.189V12.1932H303.325C303.564 11.3807 303.964 10.767 304.527 10.3523C305.089 9.93182 305.737 9.72159 306.47 9.72159C306.652 9.72159 306.848 9.73295 307.058 9.75568C307.268 9.77841 307.453 9.80966 307.612 9.84943V13.071C307.442 13.0199 307.206 12.9744 306.905 12.9347C306.604 12.8949 306.328 12.875 306.078 12.875C305.544 12.875 305.067 12.9915 304.646 13.2244C304.232 13.4517 303.902 13.7699 303.658 14.179C303.419 14.5881 303.3 15.0597 303.3 15.5938V23H299.669ZM315.326 23.2557C313.979 23.2557 312.82 22.983 311.849 22.4375C310.883 21.8864 310.138 21.108 309.616 20.1023C309.093 19.0909 308.832 17.8949 308.832 16.5142C308.832 15.1676 309.093 13.9858 309.616 12.9688C310.138 11.9517 310.874 11.1591 311.823 10.5909C312.778 10.0227 313.897 9.73864 315.181 9.73864C316.045 9.73864 316.849 9.87784 317.593 10.1562C318.343 10.429 318.996 10.8409 319.553 11.392C320.116 11.9432 320.553 12.6364 320.866 13.4716C321.178 14.3011 321.334 15.2727 321.334 16.3864V17.3835H310.28V15.1335H317.917C317.917 14.6108 317.803 14.1477 317.576 13.7443C317.349 13.3409 317.033 13.0256 316.63 12.7983C316.232 12.5653 315.769 12.4489 315.241 12.4489C314.689 12.4489 314.201 12.5767 313.775 12.8324C313.354 13.0824 313.025 13.4205 312.786 13.8466C312.547 14.267 312.425 14.7358 312.42 15.2528V17.392C312.42 18.0398 312.539 18.5994 312.778 19.071C313.022 19.5426 313.366 19.9062 313.809 20.1619C314.252 20.4176 314.778 20.5455 315.386 20.5455C315.789 20.5455 316.158 20.4886 316.493 20.375C316.829 20.2614 317.116 20.0909 317.354 19.8636C317.593 19.6364 317.775 19.358 317.9 19.0284L321.258 19.25C321.087 20.0568 320.738 20.7614 320.209 21.3636C319.687 21.9602 319.011 22.4261 318.181 22.7614C317.357 23.0909 316.405 23.2557 315.326 23.2557ZM335.076 13.642L331.752 13.8466C331.695 13.5625 331.573 13.3068 331.385 13.0795C331.198 12.8466 330.951 12.6619 330.644 12.5256C330.343 12.3835 329.982 12.3125 329.562 12.3125C328.999 12.3125 328.525 12.4318 328.138 12.6705C327.752 12.9034 327.559 13.2159 327.559 13.608C327.559 13.9205 327.684 14.1847 327.934 14.4006C328.184 14.6165 328.613 14.7898 329.221 14.9205L331.59 15.3977C332.863 15.6591 333.812 16.0795 334.437 16.6591C335.062 17.2386 335.374 18 335.374 18.9432C335.374 19.8011 335.121 20.554 334.616 21.2017C334.116 21.8494 333.428 22.3551 332.553 22.7188C331.684 23.0767 330.681 23.2557 329.545 23.2557C327.812 23.2557 326.431 22.8949 325.402 22.1733C324.38 21.446 323.78 20.4574 323.604 19.2074L327.175 19.0199C327.283 19.5483 327.545 19.9517 327.959 20.2301C328.374 20.5028 328.905 20.6392 329.553 20.6392C330.189 20.6392 330.701 20.517 331.087 20.2727C331.479 20.0227 331.678 19.7017 331.684 19.3097C331.678 18.9801 331.539 18.7102 331.266 18.5C330.993 18.2841 330.573 18.1193 330.005 18.0057L327.738 17.554C326.459 17.2983 325.508 16.8551 324.883 16.2244C324.263 15.5937 323.954 14.7898 323.954 13.8125C323.954 12.9716 324.181 12.2472 324.635 11.6392C325.096 11.0312 325.741 10.5625 326.57 10.233C327.405 9.90341 328.383 9.73864 329.502 9.73864C331.155 9.73864 332.456 10.0881 333.405 10.7869C334.36 11.4858 334.917 12.4375 335.076 13.642ZM345.103 9.90909V12.6364H337.22V9.90909H345.103ZM339.01 6.77273H342.64V18.9773C342.64 19.3125 342.691 19.5739 342.794 19.7614C342.896 19.9432 343.038 20.071 343.22 20.1449C343.407 20.2187 343.623 20.2557 343.868 20.2557C344.038 20.2557 344.208 20.2415 344.379 20.2131C344.549 20.179 344.68 20.1534 344.771 20.1364L345.342 22.8381C345.16 22.8949 344.904 22.9602 344.575 23.0341C344.245 23.1136 343.845 23.1619 343.373 23.179C342.498 23.2131 341.731 23.0966 341.072 22.8295C340.419 22.5625 339.91 22.1477 339.547 21.5852C339.183 21.0227 339.004 20.3125 339.01 19.4545V6.77273ZM350.071 23.2216C349.508 23.2216 349.025 23.0227 348.622 22.625C348.224 22.2216 348.025 21.7386 348.025 21.1761C348.025 20.6193 348.224 20.142 348.622 19.7443C349.025 19.3466 349.508 19.1477 350.071 19.1477C350.616 19.1477 351.093 19.3466 351.502 19.7443C351.911 20.142 352.116 20.6193 352.116 21.1761C352.116 21.5511 352.019 21.8949 351.826 22.2074C351.639 22.5142 351.392 22.7614 351.085 22.9489C350.778 23.1307 350.44 23.2216 350.071 23.2216Z" fill="black"/>
</svg>
