<svg width="100" height="100" viewBox="0 0 100 100" fill="none" xmlns="http://www.w3.org/2000/svg">
<rect width="100" height="100" rx="5" fill="#E85328"/>
<path d="M33.868 50.62H63.028V53.896H33.868V50.62ZM42.724 70.78C42.724 71.212 42.868 71.572 43.156 71.86C43.468 72.148 43.9 72.376 44.452 72.544L46.144 72.976C46.984 73.264 47.404 73.792 47.404 74.56C47.404 74.992 47.248 75.34 46.936 75.604C46.648 75.868 46.18 76 45.532 76H23.788C23.14 76 22.66 75.868 22.348 75.604C22.06 75.34 21.916 74.992 21.916 74.56C21.916 73.792 22.336 73.264 23.176 72.976L24.868 72.544C25.444 72.376 25.876 72.148 26.164 71.86C26.452 71.572 26.596 71.212 26.596 70.78V30.82C26.596 30.388 26.452 30.028 26.164 29.74C25.876 29.452 25.444 29.224 24.868 29.056L23.176 28.624C22.336 28.336 21.916 27.808 21.916 27.04C21.916 26.608 22.06 26.26 22.348 25.996C22.66 25.732 23.14 25.6 23.788 25.6H45.532C46.18 25.6 46.648 25.732 46.936 25.996C47.248 26.26 47.404 26.608 47.404 27.04C47.404 27.808 46.984 28.336 46.144 28.624L44.452 29.056C43.9 29.224 43.468 29.452 43.156 29.74C42.868 30.028 42.724 30.388 42.724 30.82V70.78ZM73.036 70.78C73.036 71.212 73.18 71.572 73.468 71.86C73.78 72.148 74.212 72.376 74.764 72.544L76.456 72.976C77.296 73.264 77.716 73.792 77.716 74.56C77.716 74.992 77.56 75.34 77.248 75.604C76.96 75.868 76.504 76 75.88 76H54.1C53.452 76 52.972 75.868 52.66 75.604C52.372 75.34 52.228 74.992 52.228 74.56C52.228 73.792 52.66 73.264 53.524 72.976L55.18 72.544C55.78 72.376 56.224 72.148 56.512 71.86C56.8 71.572 56.944 71.212 56.944 70.78V30.82C56.944 30.388 56.8 30.028 56.512 29.74C56.224 29.452 55.78 29.224 55.18 29.056L53.524 28.624C52.66 28.336 52.228 27.808 52.228 27.04C52.228 26.608 52.372 26.26 52.66 25.996C52.972 25.732 53.452 25.6 54.1 25.6H75.88C76.504 25.6 76.96 25.732 77.248 25.996C77.56 26.26 77.716 26.608 77.716 27.04C77.716 27.808 77.296 28.336 76.456 28.624L74.764 29.056C74.212 29.224 73.78 29.452 73.468 29.74C73.18 30.028 73.036 30.388 73.036 30.82V70.78Z" fill="#FAFAF7"/>
</svg>
