<svg width="123" height="27" viewBox="0 0 123 27" fill="none" xmlns="http://www.w3.org/2000/svg">
<path d="M5.52593 12.798H20.7539V14.814H5.52593V12.798ZM9.44993 22.554C9.44993 22.818 9.52793 23.034 9.68393 23.202C9.83993 23.358 10.0619 23.484 10.3499 23.58L11.2499 23.814C11.7659 23.994 12.0239 24.33 12.0239 24.822C12.0239 25.086 11.9279 25.302 11.7359 25.47C11.5439 25.638 11.2499 25.722 10.8539 25.722H1.16993C0.773928 25.722 0.479928 25.638 0.287928 25.47C0.0959278 25.302 -7.22259e-05 25.086 -7.22259e-05 24.822C-7.22259e-05 24.33 0.257928 23.994 0.773928 23.814L1.67393 23.58C1.97393 23.484 2.19593 23.358 2.33993 23.202C2.49593 23.034 2.57393 22.818 2.57393 22.554V3.69004C2.57393 3.42604 2.49593 3.21604 2.33993 3.06004C2.19593 2.89205 1.97393 2.76005 1.67393 2.66405L0.773928 2.43005C0.257928 2.25005 -7.22259e-05 1.91405 -7.22259e-05 1.42205C-7.22259e-05 1.14605 0.0959278 0.930045 0.287928 0.774045C0.479928 0.606045 0.773928 0.522044 1.16993 0.522044H10.8539C11.2499 0.522044 11.5439 0.606045 11.7359 0.774045C11.9279 0.930045 12.0239 1.14605 12.0239 1.42205C12.0239 1.91405 11.7659 2.25005 11.2499 2.43005L10.3499 2.66405C10.0619 2.76005 9.83993 2.89205 9.68393 3.06004C9.52793 3.21604 9.44993 3.42604 9.44993 3.69004V22.554ZM25.1999 22.554C25.1999 22.818 25.2719 23.034 25.4159 23.202C25.5719 23.358 25.7939 23.484 26.0819 23.58L26.9819 23.814C27.4979 23.994 27.7559 24.33 27.7559 24.822C27.7559 25.086 27.6599 25.302 27.4679 25.47C27.2879 25.638 26.9939 25.722 26.5859 25.722H16.9199C16.5239 25.722 16.2299 25.638 16.0379 25.47C15.8459 25.302 15.7499 25.086 15.7499 24.822C15.7499 24.33 16.0079 23.994 16.5239 23.814L17.4239 23.58C17.7239 23.484 17.9459 23.358 18.0899 23.202C18.2339 23.034 18.3059 22.818 18.3059 22.554V3.69004C18.3059 3.42604 18.2339 3.21604 18.0899 3.06004C17.9459 2.89205 17.7239 2.76005 17.4239 2.66405L16.5239 2.43005C16.0079 2.25005 15.7499 1.91405 15.7499 1.42205C15.7499 1.14605 15.8459 0.930045 16.0379 0.774045C16.2299 0.606045 16.5239 0.522044 16.9199 0.522044H26.5859C26.9939 0.522044 27.2879 0.606045 27.4679 0.774045C27.6599 0.930045 27.7559 1.14605 27.7559 1.42205C27.7559 1.91405 27.4979 2.25005 26.9819 2.43005L26.0819 2.66405C25.7939 2.76005 25.5719 2.89205 25.4159 3.06004C25.2719 3.21604 25.1999 3.42604 25.1999 3.69004V22.554ZM39.3212 9.48604V22.68C39.3212 23.076 39.3632 23.364 39.4472 23.544C39.5312 23.712 39.6692 23.832 39.8612 23.904L40.4372 24.084C40.6652 24.18 40.8272 24.294 40.9232 24.426C41.0312 24.558 41.0852 24.72 41.0852 24.912C41.0852 25.164 41.0012 25.362 40.8332 25.506C40.6772 25.65 40.4132 25.722 40.0412 25.722H32.3372C31.9772 25.722 31.7132 25.65 31.5452 25.506C31.3892 25.362 31.3112 25.164 31.3112 24.912C31.3112 24.732 31.3592 24.576 31.4552 24.444C31.5632 24.3 31.7312 24.18 31.9592 24.084L32.5532 23.904C32.7452 23.832 32.8832 23.712 32.9672 23.544C33.0512 23.364 33.0932 23.082 33.0932 22.698V12.816C33.0932 12.516 33.0452 12.3 32.9492 12.168C32.8652 12.024 32.7272 11.934 32.5352 11.898L31.8332 11.808C31.6172 11.748 31.4612 11.658 31.3652 11.538C31.2692 11.418 31.2212 11.268 31.2212 11.088C31.2212 10.872 31.2812 10.704 31.4012 10.584C31.5332 10.452 31.7612 10.32 32.0852 10.188L36.0632 8.76605C36.5672 8.57404 36.9632 8.44204 37.2512 8.37005C37.5392 8.29805 37.7972 8.26205 38.0252 8.26205C38.4572 8.26205 38.7812 8.37605 38.9972 8.60405C39.2132 8.83205 39.3212 9.12604 39.3212 9.48604ZM35.8472 6.15605C34.7192 6.15605 33.8192 5.87405 33.1472 5.31004C32.4872 4.74604 32.1572 3.99604 32.1572 3.06004C32.1572 2.13604 32.4872 1.39804 33.1472 0.846044C33.8192 0.282045 34.7192 4.55379e-05 35.8472 4.55379e-05C36.9752 4.55379e-05 37.8752 0.282045 38.5472 0.846044C39.2192 1.39804 39.5552 2.13604 39.5552 3.06004C39.5552 3.99604 39.2192 4.74604 38.5472 5.31004C37.8752 5.87405 36.9752 6.15605 35.8472 6.15605ZM51.0831 16.074C51.0831 14.322 51.3231 12.864 51.8031 11.7C52.2951 10.536 52.9371 9.66605 53.7291 9.09005C54.5211 8.51405 55.3731 8.22604 56.2851 8.22604C57.4611 8.22604 58.3611 8.57404 58.9851 9.27005C59.6211 9.95405 59.9391 10.974 59.9391 12.33C59.9391 13.614 59.6691 14.568 59.1291 15.192C58.6011 15.816 57.9111 16.128 57.0591 16.128C56.2191 16.128 55.5831 15.906 55.1511 15.462C54.7191 15.018 54.5031 14.394 54.5031 13.59V12.906C54.4911 12.558 54.4131 12.3 54.2691 12.132C54.1251 11.952 53.8911 11.862 53.5671 11.862C53.2431 11.862 52.9371 12.006 52.6491 12.294C52.3731 12.57 52.1451 13.008 51.9651 13.608C51.7971 14.208 51.7131 14.982 51.7131 15.93L51.0831 16.074ZM51.3531 9.50405L51.7131 13.68V22.662C51.7131 23.01 51.7731 23.268 51.8931 23.436C52.0131 23.592 52.2531 23.706 52.6131 23.778L54.1071 24.048C54.3951 24.096 54.6051 24.192 54.7371 24.336C54.8811 24.468 54.9531 24.654 54.9531 24.894C54.9531 25.158 54.8631 25.362 54.6831 25.506C54.5031 25.65 54.2391 25.722 53.8911 25.722H44.7471C44.3751 25.722 44.1051 25.65 43.9371 25.506C43.7811 25.362 43.7031 25.164 43.7031 24.912C43.7031 24.732 43.7511 24.576 43.8471 24.444C43.9551 24.3 44.1231 24.18 44.3511 24.084L44.9271 23.904C45.1311 23.832 45.2751 23.712 45.3591 23.544C45.4431 23.376 45.4851 23.094 45.4851 22.698V12.852C45.4851 12.552 45.4371 12.336 45.3411 12.204C45.2571 12.06 45.1191 11.964 44.9271 11.916L44.2071 11.844C44.0031 11.784 43.8531 11.694 43.7571 11.574C43.6611 11.454 43.6131 11.304 43.6131 11.124C43.6131 10.908 43.6731 10.734 43.7931 10.602C43.9251 10.47 44.1531 10.344 44.4771 10.224L48.3831 8.85605C49.0191 8.61605 49.4811 8.46005 49.7691 8.38804C50.0571 8.31605 50.2851 8.28005 50.4531 8.28005C50.7171 8.28005 50.9211 8.37604 51.0651 8.56804C51.2091 8.76005 51.3051 9.07205 51.3531 9.50405ZM79.3473 15.156C79.3473 15.804 79.1613 16.308 78.7893 16.668C78.4293 17.028 77.9073 17.208 77.2233 17.208H66.2253V15.75H72.3093C72.8853 15.75 73.1733 15.48 73.1733 14.94C73.1733 13.296 72.9393 12.09 72.4713 11.322C72.0033 10.542 71.3913 10.152 70.6353 10.152C70.0593 10.152 69.5493 10.344 69.1053 10.728C68.6613 11.112 68.3073 11.688 68.0433 12.456C67.7913 13.224 67.6653 14.178 67.6653 15.318C67.6653 17.598 68.1813 19.29 69.2133 20.394C70.2453 21.498 71.6373 22.05 73.3893 22.05C74.3613 22.05 75.2133 21.876 75.9453 21.528C76.6893 21.168 77.2953 20.622 77.7633 19.89C78.0153 19.65 78.2073 19.488 78.3393 19.404C78.4713 19.32 78.6093 19.278 78.7533 19.278C78.9333 19.278 79.0653 19.368 79.1493 19.548C79.2453 19.728 79.2933 19.95 79.2933 20.214C79.2693 21.282 78.9093 22.272 78.2133 23.184C77.5293 24.096 76.5873 24.822 75.3873 25.362C74.1873 25.902 72.8013 26.172 71.2293 26.172C69.4653 26.172 67.8933 25.818 66.5133 25.11C65.1453 24.402 64.0653 23.406 63.2733 22.122C62.4813 20.826 62.0853 19.32 62.0853 17.604C62.0853 15.732 62.4573 14.094 63.2013 12.69C63.9453 11.286 65.0193 10.194 66.4233 9.41405C67.8273 8.62205 69.5073 8.22604 71.4633 8.22604C73.1553 8.22604 74.5893 8.52604 75.7653 9.12604C76.9413 9.71405 77.8293 10.53 78.4293 11.574C79.0413 12.618 79.3473 13.812 79.3473 15.156Z" fill="black"/>
<path d="M87.2369 15.336H97.5869L97.6409 17.37H87.1469L87.2369 15.336ZM89.5949 24.822C89.5949 25.086 89.4989 25.302 89.3069 25.47C89.1269 25.638 88.8389 25.722 88.4429 25.722H82.6469C82.2509 25.722 81.9569 25.644 81.7649 25.488C81.5729 25.32 81.4769 25.098 81.4769 24.822C81.4769 24.618 81.5309 24.45 81.6389 24.318C81.7469 24.174 81.9209 24.036 82.1609 23.904L82.6469 23.67C83.0429 23.466 83.3609 23.196 83.6009 22.86C83.8409 22.512 84.0869 21.924 84.3389 21.096L89.5589 4.50005C89.7509 3.88805 89.8049 3.43805 89.7209 3.15004C89.6489 2.86204 89.4029 2.63404 88.9829 2.46604C88.6709 2.32205 88.4489 2.17205 88.3169 2.01605C88.1969 1.84804 88.1369 1.65004 88.1369 1.42205C88.1369 1.13404 88.2329 0.912045 88.4249 0.756044C88.6169 0.600044 88.9109 0.522044 89.3069 0.522044H99.2609C99.6569 0.522044 99.9509 0.600044 100.143 0.756044C100.335 0.912045 100.431 1.13404 100.431 1.42205C100.431 1.66205 100.365 1.86604 100.233 2.03404C100.101 2.19004 99.8969 2.32204 99.6209 2.43005C99.3209 2.53804 99.1409 2.69404 99.0809 2.89805C99.0209 3.10205 99.0629 3.43204 99.2069 3.88804L104.949 21.672C105.153 22.308 105.357 22.782 105.561 23.094C105.765 23.394 106.041 23.61 106.389 23.742C106.749 23.91 106.983 24.072 107.091 24.228C107.211 24.372 107.271 24.57 107.271 24.822C107.271 25.086 107.175 25.302 106.983 25.47C106.791 25.638 106.497 25.722 106.101 25.722H97.3169C96.9089 25.722 96.6089 25.638 96.4169 25.47C96.2369 25.302 96.1469 25.086 96.1469 24.822C96.1469 24.594 96.2069 24.408 96.3269 24.264C96.4589 24.12 96.6569 24 96.9209 23.904L97.7129 23.67C98.0249 23.55 98.1689 23.382 98.1449 23.166C98.1329 22.938 98.0549 22.578 97.9109 22.086L91.9529 3.15004L92.6189 2.59204L86.9129 20.772C86.7329 21.324 86.6549 21.78 86.6789 22.14C86.7029 22.488 86.8349 22.782 87.0749 23.022C87.3149 23.262 87.6689 23.484 88.1369 23.688L88.8389 23.922C89.0789 24.03 89.2649 24.15 89.3969 24.282C89.5289 24.414 89.5949 24.594 89.5949 24.822ZM119.801 22.554C119.801 22.818 119.873 23.034 120.017 23.202C120.173 23.358 120.401 23.484 120.701 23.58L121.601 23.814C122.105 23.994 122.357 24.33 122.357 24.822C122.357 25.086 122.261 25.302 122.069 25.47C121.889 25.638 121.601 25.722 121.205 25.722H111.521C111.125 25.722 110.831 25.638 110.639 25.47C110.447 25.302 110.351 25.086 110.351 24.822C110.351 24.33 110.609 23.994 111.125 23.814L112.025 23.58C112.325 23.484 112.547 23.358 112.691 23.202C112.847 23.034 112.925 22.818 112.925 22.554V3.69004C112.925 3.42604 112.847 3.21604 112.691 3.06004C112.547 2.89205 112.325 2.76005 112.025 2.66405L111.125 2.43005C110.609 2.25005 110.351 1.91405 110.351 1.42205C110.351 1.14605 110.447 0.930045 110.639 0.774045C110.831 0.606045 111.125 0.522044 111.521 0.522044H121.205C121.601 0.522044 121.889 0.606045 122.069 0.774045C122.261 0.930045 122.357 1.14605 122.357 1.42205C122.357 1.91405 122.105 2.25005 121.601 2.43005L120.701 2.66405C120.401 2.76005 120.173 2.89205 120.017 3.06004C119.873 3.21604 119.801 3.42604 119.801 3.69004V22.554Z" fill="#E8552A"/>
</svg>
